<?xml version="1.0" encoding="utf-8"?>
<!-- Generator: Adobe Illustrator 22.0.0, SVG Export Plug-In . SVG Version: 6.00 Build 0)  -->
<svg version="1.1" id="Layer_1" xmlns="http://www.w3.org/2000/svg" xmlns:xlink="http://www.w3.org/1999/xlink" x="0px" y="0px"
	 viewBox="0 0 300 65.3" style="enable-background:new 0 0 300 65.3;" xml:space="preserve">
<style type="text/css">
	.st0{fill:#EF8124;}
	.st1{fill:#F38121;}
</style>
<g>
	<g>
		<path class="st0" d="M290.9,26.3c-0.1,0.3-1.4-0.1-3.1-0.1c-3.9,0-10.5,7.5-11.8,13.3c-1.1,4.5,0.3,10.5-2.3,10.5
			c-3.2,0-16.9-19-25.4-19c-9.6,0-13.8,15.3-30.7,15.3c-8.5,0-17.3-6.5-17.3-14.1c0-4.9,4.9,0.4,14.8,0.4c9.1,0,13.3-6.1,13.3-6.1
			s7.9-4.7,11.7-4.7c9.1,0,10.2,7.2,15,7.2c7.2,0,25.7-14.2,27.1-14.7C280,22.5,291.1,26,290.9,26.3z"/>
	</g>
	<g>
		<path d="M228.2,25.9c2.1-1.6,4.4-2.9,6.9-3.9c1.2-0.5,2.5-0.9,3.9-1.2c1.3-0.3,2.8-0.4,4.2-0.3c5.5,0.4,10.2,2.5,15,3.9
			c1.2,0.3,2.3,0.6,3.5,0.7c1.1,0.1,2.2-0.1,3.3-0.4c2.3-0.7,4.4-1.9,6.4-3.3c4-2.8,7.7-6.3,10.8-10.1l0.1-0.2l0.2-0.1l0,0
			c0.5-0.3,1.3-0.4,1.8-0.1c0.5,0.3,0.9,0.9,0.9,1.6c0,0.2,0,0.3-0.1,0.5c-0.1,0.2,0,0.1,0,0.1l0,0l0,0.1l-0.1,0.2l-0.2,0.4
			l-0.3,0.6c-0.2,0.4-0.4,0.8-0.5,1.3c-0.3,0.9-0.6,1.7-0.7,2.7c-0.2,0.9-0.3,1.9-0.4,2.8l0,0.7l0,0.4c0,0.1,0,0,0-0.1
			c0-0.1,0-0.1-0.1-0.1c-0.1-0.1,0,0,0.2,0.1c0.1,0.1,0.3,0.2,0.5,0.3c0.7,0.4,1.7,0.8,2.5,1.1l2.8,0.8c1,0.3,1.9,0.6,2.9,1
			c0.2,0.1,0.5,0.2,0.8,0.3l0.4,0.2l0.3,0.2l0.1,0.1l0,0l0.1,0.1c0,0,0.1,0.1,0.1,0.2c0.1,0.1,0.2,0.2,0.2,0.4
			c0.2,0.6,0.1,1.2-0.4,1.7c-0.1,0.1-0.2,0.2-0.4,0.3c-0.1,0.1-0.3,0.1-0.3,0.1l-0.1,0l-0.3,0.1l-0.7,0.2c-3.5,1.2-6.9,3.2-8.8,6.1
			c-1.8,2.9-2,7.1,0.1,9.5c0.6,0.7,0.6,1.8-0.2,2.4c-0.7,0.6-1.8,0.6-2.4-0.2c-0.1-0.1-0.1-0.2-0.2-0.3l0,0
			c-1.2-2.1-1.7-4.4-1.6-6.6c0.1-2.2,0.7-4.5,1.9-6.3c1.2-1.9,2.8-3.4,4.6-4.6c1.8-1.2,3.7-2,5.7-2.7l0.7-0.2l0.4-0.1l0.1,0
			c0.1,0-0.1,0-0.2,0.1c-0.1,0.1-0.2,0.1-0.3,0.2c-0.4,0.3-0.5,0.9-0.3,1.3c0,0.1,0.1,0.2,0.2,0.3c0,0,0.1,0.1,0.1,0.1l0.1,0.1
			c0,0,0,0,0,0l0,0c0,0,0,0,0,0l-0.2-0.1c-0.2-0.1-0.4-0.2-0.6-0.3c-0.8-0.4-1.7-0.7-2.7-1c-1.8-0.6-3.8-1.1-5.8-2.2
			c-0.3-0.1-0.5-0.3-0.8-0.5c-0.3-0.2-0.6-0.4-0.9-0.9c-0.1-0.1-0.1-0.3-0.2-0.5c0-0.2-0.1-0.5-0.1-0.5l0-0.4l0-0.8
			c0-1,0.1-2.1,0.2-3.1c0.1-1,0.3-2.1,0.5-3.1c0.1-0.5,0.3-1,0.4-1.6l0.2-0.7l0.1-0.3l0-0.1l0,0l0,0c0,0,0-0.1,0,0.1
			c0,0.1-0.1,0.3-0.1,0.4c0,0.7,0.4,1.3,0.9,1.5c0.5,0.3,1.3,0.3,1.7,0l0,0l0.4-0.3c-1.9,1.8-3.9,3.5-5.9,5.1c-2,1.6-4,3.2-6.2,4.6
			c-2.2,1.4-4.5,2.7-7,3.6c-1.3,0.4-2.7,0.7-4.1,0.7c-1.4,0-2.7-0.2-4-0.5c-5.1-1.1-9.9-2.6-14.5-3c-1.2-0.1-2.2,0-3.4,0.2
			c-1.1,0.2-2.3,0.4-3.4,0.8c-2.3,0.6-4.6,1.5-6.9,2.4l0,0c-0.5,0.2-1.1-0.1-1.3-0.6C227.8,26.6,227.9,26.2,228.2,25.9z"/>
	</g>
	<g>
		<g>
			<path class="st1" d="M23.7,51.2c-1.9,0-3.4-1-4.3-3.1L7.9,21.4c-0.6-1.2-0.6-2.3-0.1-3.3c0.5-1,1.5-1.4,3.1-1.4
				c0.8,0,1.5,0.2,2,0.6c0.5,0.4,1,1.1,1.4,2.1l9.5,23.3l9.7-23.3c0.4-1,0.9-1.7,1.4-2.1c0.5-0.4,1.3-0.6,2.2-0.6
				c1.2,0,2.1,0.5,2.6,1.4c0.5,1,0.4,2-0.1,3.2L28,48.1C27.1,50.2,25.7,51.2,23.7,51.2z"/>
			<path class="st1" d="M60.6,51.4c-3.4,0-6.3-0.7-8.8-2.1c-2.5-1.4-4.4-3.4-5.8-6c-1.4-2.6-2-5.7-2-9.3c0-3.6,0.7-6.7,2-9.3
				c1.4-2.6,3.3-4.6,5.8-6c2.5-1.4,5.4-2.1,8.8-2.1c3.3,0,6.2,0.7,8.7,2.1c2.5,1.4,4.4,3.4,5.8,6c1.4,2.6,2.1,5.7,2.1,9.3
				c0,3.6-0.7,6.7-2.1,9.3c-1.4,2.6-3.3,4.6-5.8,6C66.8,50.7,63.9,51.4,60.6,51.4z M60.6,46c2.9,0,5.2-1,6.9-3.1
				c1.7-2.1,2.6-5.1,2.6-9c0-3.9-0.9-6.9-2.6-8.9c-1.7-2-4-3.1-6.9-3.1c-2.9,0-5.2,1-7,3.1c-1.7,2-2.6,5-2.6,8.9
				c0,3.9,0.9,6.9,2.6,9C55.4,45,57.7,46,60.6,46z"/>
			<path class="st1" d="M95.8,51.4c-3.6,0-6.3-1-8.1-3.1c-1.8-2.1-2.7-5.1-2.7-9.1v-34c0-2.3,1.1-3.5,3.5-3.5c2.3,0,3.5,1.2,3.5,3.5
				v33.6c0,4.6,1.8,6.8,5.5,6.8c0.4,0,0.8,0,1.1-0.1c0.3,0,0.6-0.1,1-0.1c0.6,0,0.9,0.1,1.2,0.4c0.2,0.3,0.3,1,0.3,2.1
				c0,1.9-0.9,3-2.6,3.2c-0.5,0-0.9,0.1-1.3,0.1C96.6,51.4,96.2,51.4,95.8,51.4z"/>
			<path class="st1" d="M109.5,63.7c-2.3,0-3.5-1.2-3.5-3.5v-40c0-2.3,1.1-3.5,3.4-3.5c2.3,0,3.5,1.2,3.5,3.5v2.6
				c1-1.9,2.5-3.5,4.5-4.6c2-1.1,4.2-1.7,6.8-1.7c3,0,5.6,0.7,7.8,2.1c2.2,1.4,4,3.4,5.2,6c1.2,2.6,1.8,5.7,1.8,9.3
				c0,3.6-0.6,6.7-1.8,9.3c-1.2,2.6-2.9,4.6-5.2,6c-2.2,1.4-4.8,2.1-7.8,2.1c-2.5,0-4.7-0.5-6.7-1.6c-2-1.1-3.4-2.6-4.5-4.5v14.8
				C113,62.5,111.9,63.7,109.5,63.7z M122.4,46c2.9,0,5.2-1,6.9-3.1c1.7-2.1,2.6-5.1,2.6-9c0-3.9-0.9-6.9-2.6-8.9
				c-1.7-2-4-3.1-6.9-3.1c-2.9,0-5.2,1-6.9,3.1c-1.7,2-2.6,5-2.6,8.9c0,3.9,0.9,6.9,2.6,9C117.2,45,119.5,46,122.4,46z"/>
			<path class="st1" d="M150.3,9.6c-1.4,0-2.4-0.3-3.2-1c-0.8-0.7-1.1-1.7-1.1-2.9c0-2.6,1.4-3.9,4.3-3.9s4.3,1.3,4.3,3.9
				C154.6,8.3,153.2,9.6,150.3,9.6z M150.3,51.2c-2.3,0-3.5-1.3-3.5-3.8V20.5c0-2.5,1.1-3.7,3.5-3.7c2.3,0,3.5,1.2,3.5,3.7v26.9
				C153.8,49.9,152.6,51.2,150.3,51.2z"/>
			<path class="st1" d="M175.4,51.4c-2,0-4.1-0.2-6.3-0.7c-2.2-0.5-4.1-1.2-5.9-2.3c-0.8-0.5-1.3-1-1.4-1.7
				c-0.2-0.7-0.1-1.3,0.1-1.9c0.3-0.6,0.7-1,1.3-1.3c0.6-0.3,1.3-0.2,2.1,0.2c1.8,1,3.5,1.7,5.2,2.1c1.7,0.4,3.3,0.6,4.9,0.6
				c2.4,0,4.3-0.4,5.5-1.3c1.2-0.9,1.9-2,1.9-3.5c0-1.2-0.4-2.1-1.2-2.8c-0.8-0.7-2.1-1.2-3.7-1.6l-6.6-1.3c-5.8-1.2-8.7-4.2-8.7-9
				c0-3.2,1.3-5.7,3.8-7.6c2.5-1.9,5.8-2.8,9.9-2.8c4.1,0,7.7,1,10.7,3c0.7,0.5,1.2,1,1.3,1.7c0.1,0.7,0,1.3-0.3,1.9
				c-0.3,0.6-0.8,1-1.4,1.2c-0.6,0.2-1.3,0.1-2.2-0.3c-1.4-0.8-2.8-1.4-4.1-1.8c-1.4-0.4-2.7-0.6-4-0.6c-2.4,0-4.2,0.4-5.5,1.3
				c-1.2,0.9-1.9,2.1-1.9,3.6c0,2.3,1.5,3.8,4.6,4.4l6.6,1.3c3,0.6,5.3,1.6,6.8,3c1.5,1.4,2.3,3.4,2.3,5.8c0,3.2-1.3,5.7-3.8,7.6
				C183,50.5,179.6,51.4,175.4,51.4z"/>
		</g>
	</g>
</g>
</svg>
