<?xml version="1.0" encoding="utf-8"?>
<!-- Generator: Adobe Illustrator 22.0.0, SVG Export Plug-In . SVG Version: 6.00 Build 0)  -->
<svg version="1.1" id="Layer_1" xmlns="http://www.w3.org/2000/svg" xmlns:xlink="http://www.w3.org/1999/xlink" x="0px" y="0px"
	 viewBox="0 0 300 65.3" style="enable-background:new 0 0 300 65.3;" xml:space="preserve">
<g>
	<g>
		<g>
			<path d="M24.5,51.1c-1.9,0-3.3-1-4.3-3.1L8.8,21.4c-0.5-1.2-0.6-2.3-0.1-3.3c0.5-1,1.5-1.4,3.1-1.4c0.8,0,1.5,0.2,2,0.6
				c0.5,0.4,1,1.1,1.4,2.1l9.4,23.2l9.6-23.2c0.4-1,0.9-1.7,1.4-2.1c0.5-0.4,1.3-0.6,2.2-0.6c1.2,0,2.1,0.5,2.5,1.4
				c0.5,1,0.4,2-0.1,3.2L28.7,48.1C27.9,50.1,26.4,51.1,24.5,51.1z"/>
			<path d="M61.1,51.3c-3.4,0-6.3-0.7-8.8-2.1c-2.5-1.4-4.4-3.4-5.7-6c-1.3-2.6-2-5.7-2-9.2c0-3.6,0.7-6.6,2-9.2
				c1.3-2.6,3.3-4.6,5.7-6c2.5-1.4,5.4-2.1,8.8-2.1c3.3,0,6.2,0.7,8.6,2.1c2.5,1.4,4.4,3.4,5.8,6c1.4,2.6,2.1,5.7,2.1,9.2
				c0,3.6-0.7,6.6-2.1,9.2c-1.4,2.6-3.3,4.6-5.8,6C67.3,50.6,64.4,51.3,61.1,51.3z M61.1,45.9c2.8,0,5.1-1,6.9-3.1
				c1.7-2.1,2.6-5,2.6-8.9c0-3.9-0.9-6.8-2.6-8.9c-1.7-2-4-3.1-6.9-3.1c-2.9,0-5.2,1-6.9,3.1c-1.7,2-2.6,5-2.6,8.9
				c0,3.9,0.9,6.9,2.6,8.9C55.9,44.9,58.2,45.9,61.1,45.9z"/>
			<path d="M96.1,51.3c-3.6,0-6.3-1-8.1-3.1c-1.8-2.1-2.7-5.1-2.7-9.1V5.3c0-2.3,1.1-3.5,3.4-3.5c2.3,0,3.5,1.2,3.5,3.5v33.4
				c0,4.5,1.8,6.8,5.5,6.8c0.4,0,0.8,0,1.1-0.1c0.3,0,0.6-0.1,1-0.1c0.5,0,0.9,0.1,1.2,0.4c0.2,0.3,0.3,1,0.3,2.1
				c0,1.9-0.9,3-2.6,3.2c-0.5,0-0.9,0.1-1.3,0.1C96.9,51.3,96.5,51.3,96.1,51.3z"/>
			<path d="M109.7,63.5c-2.3,0-3.4-1.2-3.4-3.5V20.2c0-2.3,1.1-3.5,3.4-3.5c2.3,0,3.4,1.2,3.4,3.5v2.6c1-1.9,2.5-3.4,4.5-4.6
				c2-1.1,4.2-1.7,6.7-1.7c3,0,5.6,0.7,7.8,2.1c2.2,1.4,3.9,3.4,5.1,6c1.2,2.6,1.8,5.7,1.8,9.2c0,3.6-0.6,6.7-1.8,9.3
				c-1.2,2.6-2.9,4.6-5.1,6c-2.2,1.4-4.8,2.1-7.8,2.1c-2.5,0-4.7-0.5-6.6-1.6c-1.9-1.1-3.4-2.5-4.4-4.4V60
				C113.2,62.3,112.1,63.5,109.7,63.5z M122.6,45.9c2.9,0,5.2-1,6.9-3.1c1.7-2.1,2.6-5,2.6-8.9c0-3.9-0.9-6.8-2.6-8.9
				c-1.7-2-4-3.1-6.9-3.1c-2.9,0-5.2,1-6.9,3.1c-1.7,2-2.6,5-2.6,8.9c0,3.9,0.9,6.9,2.6,8.9C117.4,44.9,119.7,45.9,122.6,45.9z"/>
			<path d="M150.3,9.7c-1.4,0-2.4-0.3-3.2-1C146.4,8,146,7,146,5.8c0-2.6,1.4-3.9,4.3-3.9c2.9,0,4.3,1.3,4.3,3.9
				C154.6,8.4,153.2,9.7,150.3,9.7z M150.3,51.1c-2.3,0-3.4-1.3-3.4-3.8V20.5c0-2.5,1.1-3.7,3.4-3.7c2.3,0,3.5,1.2,3.5,3.7v26.8
				C153.8,49.8,152.6,51.1,150.3,51.1z"/>
			<path d="M175.3,51.3c-2,0-4.1-0.2-6.2-0.7c-2.2-0.5-4.1-1.2-5.8-2.3c-0.8-0.5-1.3-1-1.4-1.7c-0.2-0.7-0.1-1.3,0.1-1.9
				c0.3-0.6,0.7-1,1.3-1.3c0.6-0.3,1.3-0.2,2.1,0.2c1.8,1,3.5,1.6,5.1,2.1c1.6,0.4,3.3,0.6,4.9,0.6c2.4,0,4.3-0.4,5.5-1.3
				c1.2-0.9,1.9-2,1.9-3.5c0-1.2-0.4-2.1-1.2-2.8c-0.8-0.7-2.1-1.2-3.7-1.5l-6.5-1.3c-5.8-1.2-8.6-4.2-8.6-8.9
				c0-3.2,1.3-5.7,3.8-7.5c2.5-1.9,5.8-2.8,9.9-2.8c4.1,0,7.7,1,10.6,3c0.7,0.5,1.2,1,1.3,1.7c0.1,0.7,0,1.3-0.3,1.9
				c-0.3,0.6-0.8,1-1.4,1.2c-0.6,0.2-1.3,0.1-2.2-0.3c-1.4-0.8-2.7-1.4-4.1-1.8c-1.4-0.4-2.7-0.6-4-0.6c-2.4,0-4.2,0.4-5.4,1.3
				c-1.2,0.9-1.9,2.1-1.9,3.6c0,2.3,1.5,3.8,4.5,4.4l6.5,1.3c3,0.6,5.2,1.6,6.8,3c1.5,1.4,2.3,3.3,2.3,5.8c0,3.2-1.3,5.7-3.8,7.5
				C182.8,50.4,179.4,51.3,175.3,51.3z"/>
		</g>
	</g>
	<g>
		<path d="M290.1,26.3c-0.1,0.3-1.4-0.1-3.1-0.1c-3.9,0-10.4,7.4-11.8,13.3c-1.1,4.4,0.3,10.4-2.3,10.4c-3.2,0-16.8-18.9-25.3-18.9
			c-9.5,0-13.8,15.2-30.5,15.2c-8.5,0-17.2-6.4-17.2-14.1c0-4.8,4.9,0.4,14.7,0.4c9,0,13.3-6.1,13.3-6.1s7.8-4.7,11.6-4.7
			c9,0,10.1,7.2,14.9,7.2c7.1,0,25.6-14.2,26.9-14.6C279.2,22.5,290.3,26,290.1,26.3z"/>
	</g>
	<g>
		<path d="M227.8,25.9c2.1-1.6,4.4-2.9,6.8-3.8c1.2-0.5,2.5-0.9,3.9-1.1c1.3-0.3,2.8-0.4,4.2-0.3c5.5,0.4,10.2,2.5,14.9,3.9
			c1.2,0.3,2.3,0.6,3.4,0.7c1.1,0.1,2.2-0.1,3.3-0.4c2.2-0.7,4.4-1.9,6.4-3.3c4-2.8,7.7-6.3,10.7-10.1l0.1-0.2l0.2-0.1l0,0
			c0.5-0.3,1.3-0.4,1.8-0.1c0.5,0.3,0.9,0.9,0.9,1.6c0,0.2,0,0.3-0.1,0.5c-0.1,0.2,0,0.1,0,0.1l0,0l0,0.1l-0.1,0.2l-0.2,0.4
			l-0.3,0.6c-0.2,0.4-0.4,0.8-0.5,1.2c-0.3,0.8-0.6,1.7-0.7,2.6c-0.2,0.9-0.3,1.8-0.3,2.8l0,0.7l0,0.4c0,0.1,0,0,0-0.1
			c0-0.1,0-0.1-0.1-0.1c-0.1-0.1,0,0,0.2,0.1c0.1,0.1,0.3,0.2,0.5,0.3c0.7,0.4,1.7,0.7,2.5,1l2.8,0.8c1,0.3,1.9,0.6,2.9,1
			c0.2,0.1,0.5,0.2,0.8,0.3l0.4,0.2l0.3,0.2l0.1,0.1l0,0l0.1,0.1c0,0,0.1,0.1,0.1,0.2c0.1,0.1,0.2,0.2,0.2,0.4
			c0.2,0.6,0.1,1.2-0.4,1.7c-0.1,0.1-0.2,0.2-0.4,0.3c-0.1,0.1-0.3,0.1-0.3,0.1l-0.1,0l-0.3,0.1l-0.7,0.2c-3.5,1.2-6.9,3.1-8.8,6.1
			c-1.8,2.8-2,7,0.1,9.4c0.6,0.7,0.6,1.8-0.2,2.4s-1.8,0.6-2.4-0.2c-0.1-0.1-0.1-0.2-0.2-0.3l0,0c-1.2-2.1-1.7-4.4-1.6-6.6
			c0.1-2.2,0.7-4.4,1.9-6.3c1.2-1.9,2.8-3.4,4.6-4.5c1.8-1.2,3.7-2,5.6-2.7l0.7-0.2l0.4-0.1l0.1,0c0.1,0-0.1,0-0.2,0.1
			c-0.1,0.1-0.2,0.1-0.3,0.2c-0.4,0.3-0.5,0.9-0.3,1.3c0,0.1,0.1,0.2,0.2,0.3c0,0,0.1,0.1,0.1,0.1l0.1,0.1c0,0,0,0,0,0l0,0
			c0,0,0,0,0,0l-0.2-0.1c-0.2-0.1-0.4-0.2-0.6-0.3c-0.8-0.4-1.7-0.7-2.6-1c-1.8-0.6-3.8-1.1-5.7-2.1c-0.2-0.1-0.5-0.3-0.8-0.5
			c-0.3-0.2-0.6-0.4-0.9-0.9c-0.1-0.1-0.1-0.3-0.2-0.5c0-0.2-0.1-0.5-0.1-0.5l0-0.4l0-0.8c0-1,0.1-2.1,0.2-3.1
			c0.1-1,0.3-2.1,0.5-3.1c0.1-0.5,0.3-1,0.4-1.5l0.2-0.7l0.1-0.3l0-0.1l0,0l0,0c0,0,0-0.1,0,0.1c0,0.1-0.1,0.3-0.1,0.4
			c0,0.7,0.4,1.3,0.9,1.5c0.5,0.3,1.3,0.3,1.7,0l0,0l0.4-0.3c-1.9,1.8-3.8,3.4-5.8,5.1c-2,1.6-4,3.2-6.2,4.6c-2.2,1.4-4.4,2.7-7,3.6
			c-1.3,0.4-2.7,0.7-4.1,0.7c-1.4,0-2.7-0.2-4-0.5c-5-1.1-9.8-2.6-14.4-2.9c-1.2-0.1-2.2,0-3.3,0.2c-1.1,0.2-2.3,0.4-3.4,0.8
			c-2.3,0.6-4.6,1.5-6.9,2.4l0,0c-0.5,0.2-1.1-0.1-1.3-0.6C227.3,26.7,227.4,26.2,227.8,25.9z"/>
	</g>
</g>
</svg>
